<svg xmlns="http://www.w3.org/2000/svg" viewBox="0 0 186 258" width="186" height="258">
  <defs>
    <linearGradient id="baseGrad" x1="18%" y1="82%" x2="84%" y2="18%">
      <stop offset="0%" stop-color="#23d6c8"/>
      <stop offset="34%" stop-color="#8bf0df"/>
      <stop offset="56%" stop-color="#efe7a2"/>
      <stop offset="78%" stop-color="#d1a83d"/>
      <stop offset="100%" stop-color="#f6f0ba"/>
    </linearGradient>
    <linearGradient id="shineGrad" x1="10%" y1="88%" x2="68%" y2="20%">
      <stop offset="0%" stop-color="#ffffff" stop-opacity="0.42"/>
      <stop offset="25%" stop-color="#ffffff" stop-opacity="0.12"/>
      <stop offset="55%" stop-color="#ffffff" stop-opacity="0"/>
      <stop offset="100%" stop-color="#ffffff" stop-opacity="0"/>
    </linearGradient>
    <linearGradient id="edgeGrad" x1="80%" y1="12%" x2="25%" y2="80%">
      <stop offset="0%" stop-color="#f8f2c9" stop-opacity="0.55"/>
      <stop offset="45%" stop-color="#f8f2c9" stop-opacity="0.12"/>
      <stop offset="100%" stop-color="#f8f2c9" stop-opacity="0"/>
    </linearGradient>
    <clipPath id="markClip" clipPathUnits="userSpaceOnUse">
      <path d="M 94.5 250.0 L 88.5 250.0 L 82.5 250.0 L 77.5 249.0 L 71.5 249.0 L 66.5 248.0 L 61.5 247.0 L 57.0 245.5 L 52.5 244.0 L 48.0 242.5 L 44.0 240.5 L 40.0 238.5 L 36.0 236.5 L 32.5 234.0 L 29.0 231.5 L 25.5 229.0 L 22.5 226.0 L 19.5 223.0 L 17.0 219.5 L 14.5 216.0 L 12.5 212.0 L 11.0 207.5 L 9.0 203.5 L 8.0 198.5 L 8.0 192.5 L 9.0 187.5 L 10.0 182.5 L 11.0 177.5 L 13.0 173.5 L 15.5 170.0 L 18.0 166.5 L 20.5 163.0 L 23.0 159.5 L 26.0 156.5 L 29.5 154.0 L 32.5 151.0 L 36.0 148.5 L 39.5 146.0 L 43.0 143.5 L 46.5 141.0 L 50.5 139.0 L 54.5 137.0 L 58.5 135.0 L 62.5 133.0 L 66.5 131.0 L 70.5 129.0 L 68.0 126.5 L 64.5 124.0 L 61.5 121.0 L 58.5 118.0 L 55.5 115.0 L 52.5 112.0 L 50.0 108.5 L 47.0 105.5 L 45.0 101.5 L 43.0 97.5 L 41.5 93.0 L 40.5 88.0 L 40.0 82.5 L 40.0 76.5 L 40.0 70.5 L 41.0 65.5 L 42.0 60.5 L 44.0 56.5 L 45.5 52.0 L 47.0 47.5 L 49.5 44.0 L 51.5 40.0 L 54.0 36.5 L 56.0 32.5 L 58.5 29.0 L 61.5 26.0 L 64.5 23.0 L 67.5 20.0 L 71.5 18.0 L 75.0 15.5 L 79.5 14.0 L 83.5 12.0 L 88.5 11.0 L 93.0 9.5 L 98.5 9.0 L 103.5 8.0 L 109.5 8.0 L 114.5 9.0 L 119.5 10.0 L 124.5 11.0 L 129.5 12.0 L 133.5 14.0 L 137.5 16.0 L 141.0 18.5 L 144.5 21.0 L 147.5 24.0 L 150.5 27.0 L 153.0 30.5 L 155.5 34.0 L 158.0 37.5 L 159.5 42.0 L 161.0 46.5 L 162.0 51.5 L 163.0 56.5 L 163.0 62.5 L 163.0 68.5 L 162.5 74.0 L 161.5 79.0 L 160.0 83.5 L 158.0 87.5 L 156.0 91.5 L 153.5 95.0 L 151.0 98.5 L 148.5 102.0 L 145.5 105.0 L 142.5 108.0 L 139.5 111.0 L 136.0 113.5 L 132.5 116.0 L 129.5 119.0 L 125.5 121.0 L 122.0 123.5 L 123.0 126.5 L 126.5 129.0 L 130.5 131.0 L 134.5 133.0 L 138.0 135.5 L 142.0 137.5 L 145.5 140.0 L 149.0 142.5 L 152.5 145.0 L 156.0 147.5 L 159.0 150.5 L 162.0 153.5 L 164.5 157.0 L 167.5 160.0 L 170.0 163.5 L 172.0 167.5 L 174.0 171.5 L 176.0 175.5 L 177.0 180.5 L 178.0 185.5 L 178.0 191.5 L 177.0 196.5 L 176.0 201.5 L 175.0 206.5 L 173.0 210.5 L 170.5 214.0 L 168.0 217.5 L 165.0 220.5 L 162.0 223.5 L 159.0 226.5 L 155.5 229.0 L 152.0 231.5 L 148.5 234.0 L 144.5 236.0 L 140.5 238.0 L 136.5 240.0 L 132.0 241.5 L 127.5 243.0 L 123.0 244.5 L 118.5 246.0 L 113.5 247.0 L 108.5 248.0 L 103.5 249.0 L 97.5 249.0 L 94.5 250.0 Z M 91.0 219.5 L 94.5 219.0 L 98.5 219.0 L 101.5 218.0 L 104.5 217.0 L 108.0 216.5 L 111.0 215.5 L 114.0 214.5 L 116.5 213.0 L 119.5 212.0 L 122.0 210.5 L 124.5 209.0 L 127.0 207.5 L 129.5 206.0 L 131.5 204.0 L 133.5 202.0 L 135.5 200.0 L 137.0 197.5 L 138.5 195.0 L 140.0 192.5 L 140.0 188.5 L 140.0 184.5 L 139.0 181.5 L 138.0 178.5 L 137.0 175.5 L 135.5 173.0 L 134.0 170.5 L 132.0 168.5 L 130.0 166.5 L 128.0 164.5 L 126.0 162.5 L 124.0 160.5 L 122.0 158.5 L 119.5 157.0 L 117.5 155.0 L 115.0 153.5 L 112.5 152.0 L 110.0 150.5 L 107.5 149.0 L 105.0 147.5 L 102.5 146.0 L 100.0 144.5 L 97.5 143.0 L 94.5 142.0 L 92.0 140.5 L 89.5 141.0 L 87.5 143.0 L 84.5 144.0 L 82.5 146.0 L 80.0 147.5 L 77.5 149.0 L 75.5 151.0 L 73.0 152.5 L 71.0 154.5 L 68.5 156.0 L 66.5 158.0 L 64.5 160.0 L 62.5 162.0 L 60.5 164.0 L 58.5 166.0 L 56.5 168.0 L 55.0 170.5 L 53.0 172.5 L 51.5 175.0 L 50.0 177.5 L 49.0 180.5 L 48.0 183.5 L 47.0 186.5 L 46.0 189.5 L 46.5 193.0 L 47.0 196.5 L 47.5 200.0 L 49.0 202.5 L 50.0 205.5 L 52.0 207.5 L 53.5 210.0 L 56.0 211.5 L 58.0 213.5 L 60.5 215.0 L 63.5 216.0 L 66.5 217.0 L 69.5 218.0 L 72.5 219.0 L 76.5 219.0 L 79.5 220.0 L 83.5 220.0 L 87.5 220.0 L 91.0 219.5 Z M 101.0 111.5 L 103.0 109.5 L 105.5 108.0 L 107.5 106.0 L 110.0 104.5 L 112.0 102.5 L 114.5 101.0 L 116.5 99.0 L 118.5 97.0 L 120.5 95.0 L 122.0 92.5 L 124.0 90.5 L 126.0 88.5 L 128.0 86.5 L 129.5 84.0 L 131.0 81.5 L 132.5 79.0 L 134.0 76.5 L 135.5 74.0 L 137.0 71.5 L 138.0 68.5 L 139.0 65.5 L 140.0 62.5 L 140.0 58.5 L 139.5 55.0 L 138.5 52.0 L 137.0 49.5 L 135.5 47.0 L 133.0 45.5 L 130.5 44.0 L 127.5 43.0 L 124.5 42.0 L 120.5 42.0 L 117.5 41.0 L 113.5 41.0 L 110.5 42.0 L 106.5 42.0 L 103.5 43.0 L 100.5 44.0 L 97.5 45.0 L 94.5 46.0 L 92.0 47.5 L 89.5 49.0 L 87.0 50.5 L 84.5 52.0 L 82.0 53.5 L 80.0 55.5 L 78.0 57.5 L 76.0 59.5 L 74.0 61.5 L 72.5 64.0 L 71.5 67.0 L 70.0 69.5 L 70.0 73.5 L 70.0 77.5 L 70.0 81.5 L 71.0 84.5 L 72.5 87.0 L 74.0 89.5 L 75.5 92.0 L 77.0 94.5 L 79.0 96.5 L 81.0 98.5 L 83.0 100.5 L 85.0 102.5 L 87.0 104.5 L 89.5 106.0 L 91.5 108.0 L 94.0 109.5 L 96.5 111.0 L 99.5 112.0 L 101.0 111.5 Z " fill-rule="evenodd"/>
    </clipPath>
  </defs>

  <path d="M 94.5 250.0 L 88.5 250.0 L 82.5 250.0 L 77.5 249.0 L 71.5 249.0 L 66.5 248.0 L 61.5 247.0 L 57.0 245.5 L 52.5 244.0 L 48.0 242.5 L 44.0 240.5 L 40.0 238.5 L 36.0 236.5 L 32.5 234.0 L 29.0 231.5 L 25.5 229.0 L 22.5 226.0 L 19.5 223.0 L 17.0 219.5 L 14.5 216.0 L 12.5 212.0 L 11.0 207.5 L 9.0 203.5 L 8.0 198.5 L 8.0 192.5 L 9.0 187.5 L 10.0 182.5 L 11.0 177.5 L 13.0 173.5 L 15.5 170.0 L 18.0 166.5 L 20.5 163.0 L 23.0 159.5 L 26.0 156.5 L 29.5 154.0 L 32.5 151.0 L 36.0 148.5 L 39.5 146.0 L 43.0 143.5 L 46.5 141.0 L 50.5 139.0 L 54.5 137.0 L 58.5 135.0 L 62.5 133.0 L 66.5 131.0 L 70.5 129.0 L 68.0 126.5 L 64.5 124.0 L 61.5 121.0 L 58.5 118.0 L 55.5 115.0 L 52.5 112.0 L 50.0 108.5 L 47.0 105.5 L 45.0 101.5 L 43.0 97.5 L 41.5 93.0 L 40.5 88.0 L 40.0 82.5 L 40.0 76.5 L 40.0 70.5 L 41.0 65.5 L 42.0 60.5 L 44.0 56.5 L 45.5 52.0 L 47.0 47.5 L 49.5 44.0 L 51.5 40.0 L 54.0 36.5 L 56.0 32.5 L 58.5 29.0 L 61.5 26.0 L 64.5 23.0 L 67.5 20.0 L 71.5 18.0 L 75.0 15.5 L 79.5 14.0 L 83.5 12.0 L 88.5 11.0 L 93.0 9.5 L 98.5 9.0 L 103.5 8.0 L 109.5 8.0 L 114.5 9.0 L 119.5 10.0 L 124.5 11.0 L 129.5 12.0 L 133.5 14.0 L 137.5 16.0 L 141.0 18.5 L 144.5 21.0 L 147.5 24.0 L 150.5 27.0 L 153.0 30.5 L 155.5 34.0 L 158.0 37.5 L 159.5 42.0 L 161.0 46.5 L 162.0 51.5 L 163.0 56.5 L 163.0 62.5 L 163.0 68.5 L 162.5 74.0 L 161.5 79.0 L 160.0 83.5 L 158.0 87.5 L 156.0 91.5 L 153.5 95.0 L 151.0 98.5 L 148.5 102.0 L 145.5 105.0 L 142.5 108.0 L 139.5 111.0 L 136.0 113.5 L 132.5 116.0 L 129.5 119.0 L 125.5 121.0 L 122.0 123.5 L 123.0 126.5 L 126.5 129.0 L 130.5 131.0 L 134.5 133.0 L 138.0 135.5 L 142.0 137.5 L 145.5 140.0 L 149.0 142.5 L 152.5 145.0 L 156.0 147.5 L 159.0 150.5 L 162.0 153.5 L 164.5 157.0 L 167.5 160.0 L 170.0 163.5 L 172.0 167.5 L 174.0 171.5 L 176.0 175.5 L 177.0 180.5 L 178.0 185.5 L 178.0 191.5 L 177.0 196.5 L 176.0 201.5 L 175.0 206.5 L 173.0 210.5 L 170.5 214.0 L 168.0 217.5 L 165.0 220.5 L 162.0 223.5 L 159.0 226.5 L 155.5 229.0 L 152.0 231.5 L 148.5 234.0 L 144.5 236.0 L 140.5 238.0 L 136.5 240.0 L 132.0 241.5 L 127.5 243.0 L 123.0 244.5 L 118.5 246.0 L 113.5 247.0 L 108.5 248.0 L 103.5 249.0 L 97.5 249.0 L 94.5 250.0 Z M 91.0 219.5 L 94.5 219.0 L 98.5 219.0 L 101.5 218.0 L 104.5 217.0 L 108.0 216.5 L 111.0 215.5 L 114.0 214.5 L 116.5 213.0 L 119.5 212.0 L 122.0 210.5 L 124.5 209.0 L 127.0 207.5 L 129.5 206.0 L 131.5 204.0 L 133.5 202.0 L 135.5 200.0 L 137.0 197.5 L 138.5 195.0 L 140.0 192.5 L 140.0 188.5 L 140.0 184.5 L 139.0 181.5 L 138.0 178.5 L 137.0 175.5 L 135.5 173.0 L 134.0 170.5 L 132.0 168.5 L 130.0 166.5 L 128.0 164.5 L 126.0 162.5 L 124.0 160.5 L 122.0 158.5 L 119.5 157.0 L 117.5 155.0 L 115.0 153.5 L 112.5 152.0 L 110.0 150.5 L 107.5 149.0 L 105.0 147.5 L 102.5 146.0 L 100.0 144.5 L 97.5 143.0 L 94.5 142.0 L 92.0 140.5 L 89.5 141.0 L 87.5 143.0 L 84.5 144.0 L 82.5 146.0 L 80.0 147.5 L 77.5 149.0 L 75.5 151.0 L 73.0 152.5 L 71.0 154.5 L 68.5 156.0 L 66.5 158.0 L 64.5 160.0 L 62.5 162.0 L 60.5 164.0 L 58.5 166.0 L 56.5 168.0 L 55.0 170.5 L 53.0 172.5 L 51.5 175.0 L 50.0 177.5 L 49.0 180.5 L 48.0 183.5 L 47.0 186.5 L 46.0 189.5 L 46.5 193.0 L 47.0 196.5 L 47.5 200.0 L 49.0 202.5 L 50.0 205.5 L 52.0 207.5 L 53.5 210.0 L 56.0 211.5 L 58.0 213.5 L 60.5 215.0 L 63.5 216.0 L 66.5 217.0 L 69.5 218.0 L 72.5 219.0 L 76.5 219.0 L 79.5 220.0 L 83.5 220.0 L 87.5 220.0 L 91.0 219.5 Z M 101.0 111.5 L 103.0 109.5 L 105.5 108.0 L 107.5 106.0 L 110.0 104.5 L 112.0 102.5 L 114.5 101.0 L 116.5 99.0 L 118.5 97.0 L 120.5 95.0 L 122.0 92.5 L 124.0 90.5 L 126.0 88.5 L 128.0 86.5 L 129.5 84.0 L 131.0 81.5 L 132.5 79.0 L 134.0 76.5 L 135.5 74.0 L 137.0 71.5 L 138.0 68.5 L 139.0 65.5 L 140.0 62.5 L 140.0 58.5 L 139.5 55.0 L 138.5 52.0 L 137.0 49.5 L 135.5 47.0 L 133.0 45.5 L 130.5 44.0 L 127.5 43.0 L 124.5 42.0 L 120.5 42.0 L 117.5 41.0 L 113.5 41.0 L 110.5 42.0 L 106.5 42.0 L 103.5 43.0 L 100.5 44.0 L 97.5 45.0 L 94.5 46.0 L 92.0 47.5 L 89.5 49.0 L 87.0 50.5 L 84.5 52.0 L 82.0 53.5 L 80.0 55.5 L 78.0 57.5 L 76.0 59.5 L 74.0 61.5 L 72.5 64.0 L 71.5 67.0 L 70.0 69.5 L 70.0 73.5 L 70.0 77.5 L 70.0 81.5 L 71.0 84.5 L 72.5 87.0 L 74.0 89.5 L 75.5 92.0 L 77.0 94.5 L 79.0 96.5 L 81.0 98.5 L 83.0 100.5 L 85.0 102.5 L 87.0 104.5 L 89.5 106.0 L 91.5 108.0 L 94.0 109.5 L 96.5 111.0 L 99.5 112.0 L 101.0 111.5 Z " fill="url(#baseGrad)" fill-rule="evenodd"/>

  <g clip-path="url(#markClip)">
    <ellipse cx="61.4" cy="190.9" rx="55.8" ry="61.9" fill="url(#shineGrad)" transform="rotate(-25 61.4 190.9)"/>
    <ellipse cx="119.0" cy="56.8" rx="42.8" ry="46.4" fill="url(#edgeGrad)" transform="rotate(18 119.0 56.8)"/>
    <path d="M 33.5 136.7 C 70.7 123.8, 107.9 113.5, 143.2 92.9" fill="none" stroke="#fff7d9" stroke-opacity="0.28" stroke-width="9.3" stroke-linecap="round"/>
  </g>
</svg>