<svg xmlns="http://www.w3.org/2000/svg" viewBox="0 0 220 300">
  <defs>
    <linearGradient id="ribbonGrad" x1="22%" y1="82%" x2="78%" y2="18%">
      <stop offset="0%" stop-color="#25D7CB"/>
      <stop offset="30%" stop-color="#A6F1E6"/>
      <stop offset="56%" stop-color="#EFE6A0"/>
      <stop offset="78%" stop-color="#D5AA3F"/>
      <stop offset="100%" stop-color="#FFF2BA"/>
    </linearGradient>
    <linearGradient id="shadowGrad" x1="80%" y1="10%" x2="22%" y2="88%">
      <stop offset="0%" stop-color="#0A6E6B" stop-opacity="0.35"/>
      <stop offset="50%" stop-color="#0A6E6B" stop-opacity="0.10"/>
      <stop offset="100%" stop-color="#0A6E6B" stop-opacity="0"/>
    </linearGradient>
    <linearGradient id="highlightGrad" x1="10%" y1="90%" x2="70%" y2="20%">
      <stop offset="0%" stop-color="#FFFFFF" stop-opacity="0.45"/>
      <stop offset="24%" stop-color="#FFFFFF" stop-opacity="0.15"/>
      <stop offset="55%" stop-color="#FFFFFF" stop-opacity="0"/>
      <stop offset="100%" stop-color="#FFFFFF" stop-opacity="0"/>
    </linearGradient>
    <filter id="softGlow" x="-30%" y="-30%" width="160%" height="160%">
      <feGaussianBlur stdDeviation="5" result="blur"/>
      <feColorMatrix in="blur" type="matrix" values="1 0 0 0 0
                                                       0 1 0 0 0
                                                       0 1 0 0 0
                                                       0 0 0 0.10 0"/>
    </filter>
    <path id="eightShape" d="
      M110 18
      C144 18 168 39 168 72
      C168 99 151 117 126 132
      C158 147 176 171 176 204
      C176 247 145 278 110 278
      C74 278 42 247 42 204
      C42 171 61 147 93 132
      C68 117 52 99 52 72
      C52 39 76 18 110 18
      Z

      M110 58
      C93 58 79 70 79 87
      C79 104 91 116 110 126
      C128 116 141 104 141 87
      C141 69 127 58 110 58
      Z

      M110 156
      C88 167 75 182 75 201
      C75 221 89 237 110 237
      C130 237 144 221 144 201
      C144 182 131 167 110 156
      Z" fill-rule="evenodd"/>
    <clipPath id="shapeClip">
      <use href="#eightShape"/>
    </clipPath>
  </defs>

  <use href="#eightShape" fill="url(#ribbonGrad)" filter="url(#softGlow)"/>
  <use href="#eightShape" fill="url(#ribbonGrad)"/>

  <g clip-path="url(#shapeClip)">
    <ellipse cx="78" cy="210" rx="66" ry="78" fill="url(#highlightGrad)" transform="rotate(-24 78 210)"/>
    <ellipse cx="144" cy="64" rx="54" ry="42" fill="url(#highlightGrad)" transform="rotate(17 144 64)"/>
    <ellipse cx="96" cy="198" rx="60" ry="70" fill="url(#shadowGrad)" transform="rotate(14 96 198)"/>
    <path d="M64 156 C93 143 121 127 150 99" fill="none" stroke="#FFF8D6" stroke-opacity="0.30" stroke-width="10" stroke-linecap="round"/>
    <path d="M118 21 C149 27 167 47 167 74 C167 101 149 118 126 132" fill="none" stroke="#FFF7CC" stroke-opacity="0.42" stroke-width="3.5" stroke-linecap="round"/>
    <path d="M92 278 C64 271 42 244 42 205 C42 171 61 147 93 132" fill="none" stroke="#FFFFFF" stroke-opacity="0.16" stroke-width="3.5" stroke-linecap="round"/>
  </g>
</svg>